<svg width="19" height="19" viewBox="0 0 19 19" fill="none" xmlns="http://www.w3.org/2000/svg">
<path d="M11.3225 14.6463C11.18 14.6463 11.0375 14.5938 10.925 14.4813C10.7075 14.2638 10.7075 13.9038 10.925 13.6863L15.08 9.53134L10.925 5.37634C10.7075 5.15884 10.7075 4.79884 10.925 4.58134C11.1425 4.36384 11.5025 4.36384 11.72 4.58134L16.2725 9.13384C16.49 9.35134 16.49 9.71134 16.2725 9.92884L11.72 14.4813C11.6075 14.5938 11.465 14.6463 11.3225 14.6463Z" fill="#556DFF"/>
<path d="M15.7475 10.0938H3.125C2.8175 10.0938 2.5625 9.83875 2.5625 9.53125C2.5625 9.22375 2.8175 8.96875 3.125 8.96875H15.7475C16.055 8.96875 16.31 9.22375 16.31 9.53125C16.31 9.83875 16.055 10.0938 15.7475 10.0938Z" fill="#556DFF"/>
</svg>
