<svg width="96" height="124" viewBox="0 0 96 124" fill="none" xmlns="http://www.w3.org/2000/svg">
<circle cx="48.0009" cy="48.2236" r="47.9521" fill="#EBF7FF"/>
<rect x="29.1896" y="47.2463" width="46.9461" height="65.7246" rx="4.69461" transform="rotate(2.5 29.1896 47.2463)" fill="#EBF7FF" stroke="#556DFF" stroke-width="1.34132"/>
<rect x="1.28074" y="43.3148" width="49.6287" height="68.4072" rx="6.03593" transform="rotate(-7.5 1.28074 43.3148)" fill="#FAFAFA" stroke="#556DFF" stroke-width="1.34132"/>
<path d="M2.73351 49.2116C2.34674 46.2738 4.41477 43.5787 7.35257 43.1919L44.5882 38.2897C47.526 37.903 50.2211 39.971 50.6078 42.9088L51.9209 52.8826L4.04659 59.1854L2.73351 49.2116Z" fill="#C1E6FC"/>
<rect x="60.3184" y="39.6011" width="2.01198" height="6.70659" rx="1.00599" transform="rotate(82.5 60.3184 39.6011)" fill="#2B86E5"/>
<rect x="41.9443" y="28.4911" width="2.01198" height="6.70659" rx="1.00599" transform="rotate(-7.5 41.9443 28.4911)" fill="#2B86E5"/>
<rect x="53.7324" y="30.3213" width="2.01198" height="6.70659" rx="1.00599" transform="rotate(37.5 53.7324 30.3213)" fill="#2B86E5"/>
<rect x="9.0498" y="61.2324" width="38.8982" height="2.68263" rx="1.34132" transform="rotate(-7.5 9.0498 61.2324)" fill="#556DFF"/>
<rect x="10.8018" y="74.5308" width="38.8982" height="2.68263" rx="1.34132" transform="rotate(-7.5 10.8018 74.5308)" fill="#556DFF"/>
<rect x="12.5518" y="87.8291" width="38.8982" height="2.68263" rx="1.34132" transform="rotate(-7.5 12.5518 87.8291)" fill="#556DFF"/>
<rect x="9.75098" y="66.5518" width="14.0838" height="2.68263" rx="1.34132" transform="rotate(-7.5 9.75098 66.5518)" fill="#EBF7FF"/>
<rect x="11.501" y="79.8501" width="14.0838" height="2.68263" rx="1.34132" transform="rotate(-7.5 11.501 79.8501)" fill="#EBF7FF"/>
<rect x="13.252" y="93.1487" width="14.0838" height="2.68263" rx="1.34132" transform="rotate(-7.5 13.252 93.1487)" fill="#EBF7FF"/>
</svg>
