<svg width="485" height="273" viewBox="0 0 485 273" fill="none" xmlns="http://www.w3.org/2000/svg">
<rect x="-48" y="1" width="72" height="792" stroke="#FECB00"/>
<rect x="24" y="1" width="72" height="792" stroke="#FECB00"/>
<rect x="96" y="1" width="72" height="792" stroke="#FECB00"/>
<rect x="168" y="1" width="72" height="792" stroke="#FECB00"/>
<path d="M888 1H888.5V0.5H888V1ZM888 73V73.5H888.5V73H888ZM-552 1.5L888 1.5V0.5L-552 0.5V1.5ZM887.5 1V73H888.5V1H887.5ZM888 72.5L-552 72.5V73.5L888 73.5V72.5Z" fill="#FECB00"/>
<path d="M888 73H888.5V72.5H888V73ZM888 145V145.5H888.5V145H888ZM-552 73.5L888 73.5V72.5L-552 72.5V73.5ZM887.5 73V145H888.5V73H887.5ZM888 144.5L-552 144.5V145.5L888 145.5V144.5Z" fill="#FECB00"/>
<path d="M888 145H888.5V144.5H888V145ZM888 217V217.5H888.5V217H888ZM-552 145.5L888 145.5V144.5L-552 144.5V145.5ZM887.5 145V217H888.5V145H887.5ZM888 216.5L-552 216.5V217.5L888 217.5V216.5Z" fill="#FECB00"/>
<path d="M888 217H888.5V216.5H888V217ZM888 289V289.5H888.5V289H888ZM-552 217.5L888 217.5V216.5L-552 216.5V217.5ZM887.5 217V289H888.5V217H887.5ZM888 288.5L-552 288.5V289.5L888 289.5V288.5Z" fill="#FECB00"/>
</svg>
