<svg width="18" height="18" viewBox="0 0 18 18" fill="none" xmlns="http://www.w3.org/2000/svg">
<path d="M7.17741 14.1151C7.31991 14.1151 7.46241 14.0626 7.57491 13.9501C7.79241 13.7326 7.79241 13.3726 7.57491 13.1551L3.41991 9.00009L7.57491 4.84509C7.79241 4.62759 7.79241 4.26759 7.57491 4.05009C7.35741 3.83259 6.99741 3.83259 6.77991 4.05009L2.22741 8.60259C2.00991 8.82009 2.00991 9.18009 2.22741 9.39759L6.77991 13.9501C6.89241 14.0626 7.03491 14.1151 7.17741 14.1151Z" fill="#556DFF"/>
<path d="M2.7525 9.5625H15.375C15.6825 9.5625 15.9375 9.3075 15.9375 9C15.9375 8.6925 15.6825 8.4375 15.375 8.4375H2.7525C2.445 8.4375 2.19 8.6925 2.19 9C2.19 9.3075 2.445 9.5625 2.7525 9.5625Z" fill="#556DFF"/>
</svg>
