<svg width="16" height="16" viewBox="0 0 16 16" fill="none" xmlns="http://www.w3.org/2000/svg">
<path d="M5.99969 8.66669C5.55969 8.88669 5.19302 9.21335 4.91969 9.62002C4.76635 9.85335 4.76635 10.1467 4.91969 10.38C5.19302 10.7867 5.55969 11.1134 5.99969 11.3334" stroke="#98A2B3" stroke-linecap="round" stroke-linejoin="round"/>
<path d="M10.1396 8.66669C10.5796 8.88669 10.9463 9.21335 11.2196 9.62002C11.373 9.85335 11.373 10.1467 11.2196 10.38C10.9463 10.7867 10.5796 11.1134 10.1396 11.3334" stroke="#98A2B3" stroke-linecap="round" stroke-linejoin="round"/>
<path d="M5.99967 14.6666H9.99967C13.333 14.6666 14.6663 13.3333 14.6663 9.99998V5.99998C14.6663 2.66665 13.333 1.33331 9.99967 1.33331H5.99967C2.66634 1.33331 1.33301 2.66665 1.33301 5.99998V9.99998C1.33301 13.3333 2.66634 14.6666 5.99967 14.6666Z" stroke="#98A2B3" stroke-linecap="round" stroke-linejoin="round"/>
<path d="M1.4873 5.33998L14.3006 5.33331" stroke="#98A2B3" stroke-linecap="round" stroke-linejoin="round"/>
</svg>
