<svg width="16" height="16" viewBox="0 0 16 16" fill="none" xmlns="http://www.w3.org/2000/svg">
<path d="M3.59993 1.39996H12.3999C13.1333 1.39996 13.7333 1.99996 13.7333 2.7333V4.19996C13.7333 4.7333 13.3999 5.39996 13.0666 5.7333L10.1999 8.26663C9.79993 8.59996 9.53327 9.26663 9.53327 9.79996V12.6666C9.53327 13.0666 9.2666 13.6 8.93327 13.8L7.99994 14.4C7.13327 14.9333 5.93327 14.3333 5.93327 13.2666V9.7333C5.93327 9.26663 5.6666 8.66663 5.39994 8.3333L2.8666 5.66663C2.53327 5.3333 2.2666 4.7333 2.2666 4.3333V2.79996C2.2666 1.99996 2.8666 1.39996 3.59993 1.39996Z" stroke="#667085" stroke-miterlimit="10" stroke-linecap="round" stroke-linejoin="round"/>
<path d="M7.28667 1.39996L4 6.66663" stroke="#667085" stroke-miterlimit="10" stroke-linecap="round" stroke-linejoin="round"/>
</svg>
