<svg width="32" height="32" viewBox="0 0 32 32" fill="none" xmlns="http://www.w3.org/2000/svg">
<path d="M16 32C24.8366 32 32 24.8366 32 16C32 7.16344 24.8366 0 16 0C7.16344 0 0 7.16344 0 16C0 24.8366 7.16344 32 16 32Z" fill="#EBF7FF"/>
<path opacity="0.4" d="M22.75 12.25V19.75C22.75 22 21.625 23.5 19 23.5H13C10.375 23.5 9.25 22 9.25 19.75V12.25C9.25 10 10.375 8.5 13 8.5H19C21.625 8.5 22.75 10 22.75 12.25Z" fill="#556DFF"/>
<path d="M20.875 13.9375H19.375C18.235 13.9375 17.3125 13.015 17.3125 11.875V10.375C17.3125 10.0675 17.5675 9.8125 17.875 9.8125C18.1825 9.8125 18.4375 10.0675 18.4375 10.375V11.875C18.4375 12.3925 18.8575 12.8125 19.375 12.8125H20.875C21.1825 12.8125 21.4375 13.0675 21.4375 13.375C21.4375 13.6825 21.1825 13.9375 20.875 13.9375Z" fill="#556DFF"/>
<path d="M14.5001 20.3124C14.3576 20.3124 14.2151 20.2599 14.1026 20.1474L12.6026 18.6474C12.3851 18.4299 12.3851 18.0698 12.6026 17.8523L14.1026 16.3523C14.3201 16.1348 14.6801 16.1348 14.8976 16.3523C15.1151 16.5698 15.1151 16.9299 14.8976 17.1474L13.7951 18.2499L14.8976 19.3523C15.1151 19.5698 15.1151 19.9299 14.8976 20.1474C14.7851 20.2599 14.6426 20.3124 14.5001 20.3124Z" fill="#556DFF"/>
<path d="M17.5001 20.3124C17.3576 20.3124 17.2151 20.2599 17.1026 20.1474C16.8851 19.9299 16.8851 19.5698 17.1026 19.3523L18.2051 18.2499L17.1026 17.1474C16.8851 16.9299 16.8851 16.5698 17.1026 16.3523C17.3201 16.1348 17.6801 16.1348 17.8976 16.3523L19.3976 17.8523C19.6151 18.0698 19.6151 18.4299 19.3976 18.6474L17.8976 20.1474C17.7851 20.2599 17.6426 20.3124 17.5001 20.3124Z" fill="#556DFF"/>
</svg>
