<svg width="19" height="20" viewBox="0 0 19 20" fill="none" xmlns="http://www.w3.org/2000/svg">
<path d="M0.989548 17.3721V6.56132C0.725668 6.42938 0.494774 6.22718 0.296864 5.95473C0.0989547 5.68293 0 5.36562 0 5.00278V2.62787C0 2.13309 0.173171 1.71253 0.519513 1.36619C0.865855 1.01985 1.28641 0.84668 1.78119 0.84668H17.0202C17.515 0.84668 17.9356 1.01985 18.2819 1.36619C18.6282 1.71253 18.8014 2.13309 18.8014 2.62787V5.00278C18.8014 5.36562 18.7025 5.68293 18.5045 5.95473C18.3066 6.22718 18.0757 6.42938 17.8119 6.56132V17.3721C17.8119 17.8669 17.6387 18.2875 17.2924 18.6338C16.946 18.9801 16.5254 19.1533 16.0307 19.1533H2.77073C2.27596 19.1533 1.8554 18.9801 1.50906 18.6338C1.16272 18.2875 0.989548 17.8669 0.989548 17.3721ZM2.47387 6.78397V17.3721C2.47387 17.4546 2.5029 17.5249 2.56095 17.5829C2.61834 17.6403 2.68827 17.669 2.77073 17.669H16.0307C16.1131 17.669 16.1834 17.6403 16.2414 17.5829C16.2988 17.5249 16.3275 17.4546 16.3275 17.3721V6.78397H2.47387ZM17.0202 5.29965C17.1027 5.29965 17.1729 5.27062 17.231 5.21257C17.2884 5.15517 17.3171 5.08524 17.3171 5.00278V2.62787C17.3171 2.5454 17.2884 2.47515 17.231 2.41709C17.1729 2.3597 17.1027 2.331 17.0202 2.331H1.78119C1.69872 2.331 1.6288 2.3597 1.5714 2.41709C1.51335 2.47515 1.48432 2.5454 1.48432 2.62787V5.00278C1.48432 5.08524 1.51335 5.15517 1.5714 5.21257C1.6288 5.27062 1.69872 5.29965 1.78119 5.29965H17.0202Z" fill="#FECB00"/>
<path d="M11.7265 14.1217H10.9671L7.98869 10.3168V14.1217H7.11752V8.8351H7.87701L10.8479 12.6325V8.8351H11.7265V14.1217Z" fill="#FECB00"/>
</svg>
