<svg width="24" height="24" viewBox="0 0 24 24" fill="none" xmlns="http://www.w3.org/2000/svg">
<path d="M6.42928 2.41297C6.70165 2.10089 6.66945 1.62711 6.35738 1.35475C6.0453 1.08238 5.57152 1.11458 5.29916 1.42665L4.00735 2.90682C3.27459 3.74643 2.86036 4.81695 2.83712 5.9311L2.78044 8.64876C2.7718 9.06288 3.10051 9.4056 3.51464 9.41423C3.92876 9.42287 4.27148 9.09416 4.28011 8.68003L4.33679 5.96238C4.35269 5.20006 4.63611 4.4676 5.13748 3.89314L6.42928 2.41297Z" fill="#6B7280"/>
<path fill-rule="evenodd" clip-rule="evenodd" d="M6.23749 7.70074C6.37638 5.48001 8.21798 3.75 10.4431 3.75H11.0005V3C11.0005 2.44772 11.4482 2 12.0005 2C12.5528 2 13.0005 2.44772 13.0005 3V3.75H13.5579C15.7829 3.75 17.6245 5.48001 17.7634 7.70074L17.9844 11.2342C18.0687 12.5814 18.521 13.8797 19.2921 14.9876C19.9887 15.9886 19.3685 17.3712 18.1576 17.5165L14.7505 17.9254V19C14.7505 20.5188 13.5193 21.75 12.0005 21.75C10.4817 21.75 9.25047 20.5188 9.25047 19V17.9254L5.84334 17.5165C4.63241 17.3712 4.01219 15.9886 4.70887 14.9876C5.47994 13.8797 5.93222 12.5814 6.01648 11.2342L6.23749 7.70074ZM10.4431 5.25C9.01005 5.25 7.82401 6.36417 7.73456 7.79438L7.51356 11.3278C7.41216 12.949 6.86791 14.5112 5.94006 15.8444C5.88971 15.9168 5.93453 16.0167 6.02206 16.0272L9.75972 16.4757C11.2482 16.6543 12.7527 16.6543 14.2412 16.4757L17.9789 16.0272C18.0664 16.0167 18.1112 15.9168 18.0609 15.8444C17.133 14.5112 16.5888 12.949 16.4874 11.3278L16.2664 7.79438C16.1769 6.36417 14.9909 5.25 13.5579 5.25H10.4431ZM12.0005 20.25C11.3101 20.25 10.7505 19.6904 10.7505 19V18.25H13.2505V19C13.2505 19.6904 12.6908 20.25 12.0005 20.25Z" fill="#6B7280"/>
<path d="M17.6436 1.35475C17.3315 1.62711 17.2993 2.10089 17.5717 2.41297L18.8635 3.89314C19.3648 4.4676 19.6482 5.20006 19.6641 5.96238L19.7208 8.68003C19.7295 9.09416 20.0722 9.42287 20.4863 9.41423C20.9004 9.4056 21.2291 9.06288 21.2205 8.64876L21.1638 5.9311C21.1406 4.81695 20.7264 3.74643 19.9936 2.90682L18.7018 1.42665C18.4294 1.11458 17.9556 1.08238 17.6436 1.35475Z" fill="#6B7280"/>
</svg>
