<svg width="13" height="4" viewBox="0 0 13 4" fill="none" xmlns="http://www.w3.org/2000/svg">
<path d="M1.83333 0.666687C1.1 0.666687 0.5 1.26669 0.5 2.00002C0.5 2.73335 1.1 3.33335 1.83333 3.33335C2.56667 3.33335 3.16667 2.73335 3.16667 2.00002C3.16667 1.26669 2.56667 0.666687 1.83333 0.666687ZM11.1667 0.666687C10.4333 0.666687 9.83333 1.26669 9.83333 2.00002C9.83333 2.73335 10.4333 3.33335 11.1667 3.33335C11.9 3.33335 12.5 2.73335 12.5 2.00002C12.5 1.26669 11.9 0.666687 11.1667 0.666687ZM6.5 0.666687C5.76667 0.666687 5.16667 1.26669 5.16667 2.00002C5.16667 2.73335 5.76667 3.33335 6.5 3.33335C7.23333 3.33335 7.83333 2.73335 7.83333 2.00002C7.83333 1.26669 7.23333 0.666687 6.5 0.666687Z" fill="#515478"/>
</svg>
